<?xml version="1.0" encoding="UTF-8"?>
<svg version="1.1" xmlns="http://www.w3.org/2000/svg" width="512" height="512">
<path d="M0 0 C7.06497639 4.03065961 9.29061852 8.24060989 12.5625 15.875 C12.5625 76.265 12.5625 136.655 12.5625 198.875 C150.5025 198.875 288.4425 198.875 430.5625 198.875 C430.5625 138.485 430.5625 78.095 430.5625 15.875 C437.60190591 1.79618819 437.60190591 1.79618819 446.44921875 -1.6171875 C453.48248135 -3.3072506 460.61142074 -3.04520652 466.88671875 0.68359375 C472.50649588 4.6790064 476.73583677 10.09371486 477.93209171 17.01265812 C478.07429451 19.33228068 478.09610369 21.62159405 478.07043457 23.94543457 C478.07667453 24.8245892 478.0829145 25.70374383 478.08934355 26.60953951 C478.10522062 29.53749683 478.09269003 32.46461553 478.08007812 35.39257812 C478.08550158 37.49898258 478.0926255 39.60538324 478.10131836 41.71177673 C478.11952784 47.42043069 478.11249385 53.12879493 478.09980202 58.83745384 C478.08966213 64.81681463 478.09907045 70.79615092 478.10534668 76.7755127 C478.11262018 86.81604456 478.1030431 96.85645867 478.08398438 106.89697266 C478.0622163 118.49866883 478.06926787 130.10008381 478.09129 141.70177317 C478.10945238 151.66972969 478.11199818 161.63760164 478.10153532 171.60556936 C478.09530505 177.55594586 478.09445206 183.50619026 478.10768127 189.45655823 C478.11925124 195.05123088 478.1111927 200.64554162 478.08810425 206.24017525 C478.08282334 208.2912136 478.08432031 210.34228251 478.09315491 212.39330864 C478.10411829 215.19746958 478.0903371 218.00047755 478.07043457 220.80456543 C478.07935746 221.61235962 478.08828034 222.42015382 478.09747362 223.25242662 C478.00842223 229.74005326 476.08863437 234.87779162 471.88671875 239.86328125 C471.34660156 240.30027344 470.80648438 240.73726562 470.25 241.1875 C469.71761719 241.63738281 469.18523437 242.08726562 468.63671875 242.55078125 C462.90882563 246.20757177 458.04362383 247.3167551 451.29522991 247.25811005 C450.48648309 247.26306956 449.67773627 247.26802908 448.84448197 247.27313888 C446.13523053 247.28608939 443.42647237 247.27771205 440.71720886 247.26940918 C438.75488587 247.27429834 436.79256577 247.28048826 434.83025056 247.28786707 C429.4381798 247.30428656 424.04625505 247.30194454 418.65416801 247.2964921 C412.83875788 247.29382438 407.0233869 247.30834887 401.20799255 247.32058716 C389.81487516 247.3416544 378.42180865 247.34618126 367.02867409 247.34439927 C357.76881286 247.34309227 348.50896751 247.34689262 339.24910927 247.35432434 C336.58303859 247.35642351 333.91696791 247.35852142 331.25089723 247.36061716 C330.5880928 247.36114115 329.92528836 247.36166514 329.24239895 247.36220502 C310.60080666 247.37678802 291.95922005 247.38507095 273.31762218 247.38045502 C272.614895 247.38028306 271.91216781 247.38011111 271.18814586 247.37993394 C267.6264838 247.37904506 264.06482176 247.37810025 260.50315972 247.37713593 C259.7958088 247.3769449 259.08845787 247.37675387 258.35967206 247.37655704 C256.92923647 247.37616995 255.49880088 247.37577962 254.06836528 247.37538607 C231.8127056 247.36941656 209.55714991 247.38485223 187.30151367 247.41699219 C162.29378945 247.45307593 137.28613116 247.47240088 112.27837926 247.46745348 C99.03858085 247.46512041 85.79888114 247.47046628 72.55910301 247.49534607 C61.28738457 247.51634699 50.01582574 247.51996308 38.74410077 247.50104648 C32.99297462 247.49188124 27.24214615 247.49077011 21.49104309 247.51140213 C16.22492471 247.53008535 10.95934839 247.52563795 5.69325081 247.50285631 C3.78952544 247.4986639 1.88575872 247.50289205 -0.01792298 247.51645225 C-20.33288782 247.65128866 -20.33288782 247.65128866 -28.35458499 240.06102133 C-33.7495475 234.3146472 -34.73439133 228.93355577 -34.70492554 221.16532898 C-34.70945665 220.28873762 -34.71398776 219.41214627 -34.71865618 218.50899154 C-34.73131549 215.57194011 -34.72967882 212.63507374 -34.72802734 209.69799805 C-34.73401165 207.59203859 -34.74081697 205.48608132 -34.74838257 203.38012695 C-34.76606005 197.65898224 -34.7707387 191.93789735 -34.77201414 186.21672797 C-34.77391313 181.44042383 -34.7812707 176.66413362 -34.78835833 171.88783485 C-34.80464665 160.61833129 -34.80952689 149.34885968 -34.80810547 138.0793457 C-34.80690401 126.45557713 -34.82800585 114.83199422 -34.8595928 103.20827264 C-34.88574787 93.22765342 -34.89647308 83.24709487 -34.89519465 73.26644164 C-34.89468478 67.30594058 -34.90038199 61.34560448 -34.92155075 55.38513756 C-34.94091994 49.77822295 -34.94106641 44.1716309 -34.92651749 38.5647049 C-34.92442665 36.50882051 -34.92914662 34.45291601 -34.9412384 32.39706612 C-34.95669784 29.58620646 -34.94737799 26.77645805 -34.93197632 23.96562195 C-34.94226344 23.15578139 -34.95255057 22.34594084 -34.96314943 21.51155967 C-34.87877679 14.52353849 -32.5897135 9.50548316 -28.1875 4.125 C-19.68993057 -2.8275568 -10.29048581 -4.73883773 0 0 Z " fill="#000000" transform="translate(34.4375,250.125)"/>
<path d="M0 0 C6.92588792 4.56157739 10.19188417 10.48807632 12.10546875 18.38671875 C12.51858259 22.35828155 12.52206257 26.29825563 12.50419617 30.28871155 C12.51084299 31.46021379 12.51748982 32.63171604 12.52433807 33.83871835 C12.53969383 37.06792882 12.54181852 40.29682677 12.5382086 43.52606142 C12.53758233 47.01677072 12.55422741 50.50740408 12.56872559 53.99807739 C12.59147282 60.03843315 12.60338999 66.07873139 12.60785484 72.11912727 C12.61432599 80.85240248 12.6372803 89.58557389 12.66419814 98.31880718 C12.7074304 112.48946034 12.73741747 126.66010913 12.7590332 140.83081055 C12.78005357 154.59255119 12.8073379 168.35425602 12.84301758 182.1159668 C12.8452164 182.96489603 12.84741523 183.81382525 12.84968068 184.68847961 C12.8607506 188.94750448 12.87194336 193.20652902 12.88319719 197.4655534 C12.97633186 232.77257794 13.04795318 268.0796189 13.10546875 303.38671875 C13.95880295 302.52894333 14.81213715 301.67116791 15.69132996 300.78739929 C23.73425568 292.70392836 31.78245855 284.6257449 39.83585644 276.55270672 C43.97600285 272.40212362 48.11426838 268.24970078 52.24829102 264.09301758 C56.23798393 260.08159249 60.23254394 256.07507407 64.23052406 252.07190895 C65.75488922 250.54384874 67.27749309 249.01402941 68.79829979 247.4824276 C70.92884813 245.33735968 73.06557549 243.19863431 75.20385742 241.0612793 C75.831082 240.42686417 76.45830658 239.79244904 77.10453796 239.1388092 C83.23196053 233.04006363 88.14588612 230.28857376 96.85546875 230.07421875 C103.71891899 230.16595381 108.08236106 231.51925621 113.078125 236.2578125 C118.13118367 241.74665857 120.38966688 246.1172628 120.48046875 253.69921875 C120.50882812 254.76785156 120.5371875 255.83648437 120.56640625 256.9375 C119.23569169 266.8953047 112.06555449 272.99372755 105.28173828 279.7121582 C104.1669084 280.83077599 103.0529377 281.95025061 101.9397583 283.07051086 C98.92821612 286.09596074 95.90431883 289.10876904 92.87756586 292.11899209 C89.70568253 295.27697983 86.54400999 298.44516248 83.38082886 301.61186218 C78.06995202 306.92543698 72.75106386 312.23088722 67.42724609 317.53149414 C61.27736209 323.65475057 55.14002583 329.79036569 49.00931466 335.93281394 C43.10242587 341.85048977 37.1870765 347.75963682 31.2677269 353.66484642 C28.75239839 356.17442527 26.24000199 358.68688615 23.72992325 361.20171547 C20.77369229 364.16272645 17.81009724 367.11616688 14.84070587 370.0639782 C13.75376053 371.14537027 12.6693352 372.22930225 11.58766556 373.31597137 C10.1079344 374.80168137 8.61923626 376.27779851 7.12796021 377.75190735 C6.29801104 378.57942662 5.46806187 379.4069459 4.61296272 380.25954151 C-0.95615428 384.98397916 -6.53909588 386.74071836 -13.75390625 386.59375 C-26.1180761 385.39794525 -34.53252489 373.90426061 -42.76098633 365.69726562 C-43.83099802 364.63353295 -44.90119369 363.5699853 -45.97155762 362.50660706 C-49.45591798 359.04309383 -52.93511829 355.57442077 -56.4140625 352.10546875 C-57.61753392 350.90605017 -58.8210374 349.70666376 -60.02457237 348.50730896 C-65.67348667 342.87739257 -71.32002389 337.24510548 -76.96362764 331.60986567 C-83.46341143 325.11987692 -89.97141365 318.63827595 -96.48642236 312.16357183 C-101.5356628 307.14449488 -106.57719925 302.11776258 -111.61303633 297.08523798 C-114.61566199 294.08495959 -117.62148361 291.08805927 -120.63550758 288.09922791 C-123.46708937 285.29094023 -126.28898026 282.47326367 -129.10379791 279.64817619 C-130.13591725 278.61556196 -131.17144485 277.58634101 -132.21066093 276.56086922 C-143.1811598 265.72736447 -143.1811598 265.72736447 -144.328125 257.140625 C-144.33806 249.02372788 -143.71959341 243.41141881 -138.0234375 237.41796875 C-131.57552087 231.46979613 -126.56380507 229.95221761 -117.82421875 230.14453125 C-104.611852 231.23675357 -94.14625296 246.00261491 -85.33203125 254.8515625 C-83.9312091 256.25425266 -82.53016382 257.65672003 -81.12890625 259.05897522 C-77.46398238 262.72769415 -73.80207317 266.39940753 -70.14080811 270.07177734 C-66.39518619 273.82767853 -62.64668712 277.58070586 -58.8984375 281.33398438 C-51.56100172 288.68210429 -44.2267512 296.03339455 -36.89453125 303.38671875 C-36.89355444 302.78708488 -36.89257763 302.18745101 -36.89157122 301.56964642 C-36.8332843 266.02117049 -36.75947624 230.47275973 -36.66554497 194.92435968 C-36.65427696 190.65489568 -36.64313849 186.38543135 -36.63208008 182.1159668 C-36.62987639 181.26600238 -36.62767271 180.41603796 -36.62540225 179.54031705 C-36.59004123 165.78240509 -36.56517035 152.02449318 -36.54418423 138.26655263 C-36.52241266 124.14696789 -36.48934935 110.02744205 -36.44582969 95.90790743 C-36.41933634 87.19718202 -36.40162391 78.48653 -36.39518521 69.77576631 C-36.38992424 63.80041049 -36.37368345 57.82514698 -36.34886559 51.84984065 C-36.33487485 48.40370225 -36.32567066 44.957729 -36.32952309 41.51156044 C-36.33117471 37.77041771 -36.31448463 34.0297844 -36.29325867 30.28871155 C-36.29810624 29.20600686 -36.30295382 28.12330217 -36.30794829 27.00778824 C-36.21976161 17.58265638 -34.51857171 10.06220464 -27.90625 3.1171875 C-19.80124309 -3.85469223 -9.47636312 -4.78011237 0 0 Z " fill="#000000" transform="translate(267.89453125,17.61328125)"/>
</svg>
