<?xml version="1.0" standalone="no"?>
<!DOCTYPE svg PUBLIC "-//W3C//DTD SVG 20010904//EN"
 "http://www.w3.org/TR/2001/REC-SVG-20010904/DTD/svg10.dtd">
<svg version="1.0" xmlns="http://www.w3.org/2000/svg"
 width="60.000000pt" height="60.000000pt" viewBox="0 0 60.000000 60.000000"
 preserveAspectRatio="xMidYMid meet">

<g transform="translate(0.000000,60.000000) scale(0.100000,-0.100000)"
fill="#000000" stroke="none">
<path d="M365 530 c-33 -14 -214 -205 -230 -243 -53 -127 61 -259 188 -218 39
13 177 149 177 175 0 30 -24 16 -106 -64 -68 -66 -87 -80 -114 -80 -92 0 -151
107 -101 185 11 17 60 72 108 123 99 102 124 112 168 67 45 -44 35 -75 -57
-173 -90 -96 -103 -106 -124 -98 -30 12 -14 52 52 124 59 64 74 99 40 90 -7
-2 -42 -35 -79 -74 -57 -61 -67 -77 -67 -107 0 -39 36 -77 73 -77 25 0 190
160 211 205 20 42 20 68 0 111 -26 53 -85 77 -139 54z"/>
</g>
</svg>
