<?xml version="1.0" standalone="no"?>
<!DOCTYPE svg PUBLIC "-//W3C//DTD SVG 20010904//EN"
 "http://www.w3.org/TR/2001/REC-SVG-20010904/DTD/svg10.dtd">
<svg version="1.0" xmlns="http://www.w3.org/2000/svg"
 width="50.000000pt" height="50.000000pt" viewBox="0 0 50.000000 50.000000"
 preserveAspectRatio="xMidYMid meet">

<g transform="translate(0.000000,50.000000) scale(0.100000,-0.100000)"
fill="#000000" stroke="none">
<path d="M45 447 c-3 -7 -4 -100 -3 -207 l3 -195 205 0 205 0 0 205 0 205
-203 3 c-159 2 -204 0 -207 -11z m395 -197 l0 -190 -190 0 -190 0 0 190 0 190
190 0 190 0 0 -190z"/>
<path d="M220 266 c0 -19 -4 -38 -10 -41 -15 -9 -12 -25 4 -25 7 0 16 10 20
23 9 35 7 77 -4 77 -5 0 -10 -15 -10 -34z"/>
<path d="M257 293 c-12 -12 -7 -41 8 -47 8 -3 15 -10 15 -16 0 -5 -7 -10 -15
-10 -8 0 -15 -4 -15 -10 0 -16 37 -11 44 6 8 21 8 20 -11 40 -13 13 -14 19 -5
22 6 2 12 8 12 13 0 10 -23 12 -33 2z"/>
</g>
</svg>
