<?xml version="1.0" encoding="UTF-8"?>
<svg version="1.1" xmlns="http://www.w3.org/2000/svg" width="512" height="355">
<path d="M0 0 C21.12 0 42.24 0 64 0 C64.02578125 9.88324219 64.0515625 19.76648438 64.078125 29.94921875 C64.10330263 36.22462898 64.12948088 42.50000884 64.16015625 48.77539062 C64.20861982 58.72761803 64.2530934 68.67974448 64.27099609 78.63208008 C64.28405627 85.88191728 64.31113136 93.13154796 64.35461307 100.3812688 C64.37713044 104.2153318 64.39291658 108.04914101 64.39188385 111.88327599 C64.39113142 115.50235174 64.40931219 119.12086859 64.44116783 122.7397995 C64.45356428 124.6802991 64.44664848 126.62089307 64.43885803 128.56141663 C64.60158143 142.44961971 68.21843178 154.33980806 78.25390625 164.21875 C92.31805972 176.31888846 111.00429593 179.02539421 129.0078125 177.7890625 C143.6406585 176.16997933 159.21799062 171.36326657 168.9375 159.6875 C174.4568813 151.94448307 177.09881637 143.54567769 177.15821838 134.08378601 C177.1680072 132.89893112 177.17779602 131.71407623 177.18788147 130.49331665 C177.19363693 129.20218964 177.1993924 127.91106262 177.20532227 126.58081055 C177.2149075 125.20077729 177.22491796 123.82074694 177.23532104 122.4407196 C177.26230624 118.70148409 177.28335028 114.96223604 177.30332303 111.22295737 C177.32522207 107.31249961 177.35259156 103.40208022 177.37937927 99.49165344 C177.42925325 92.08990381 177.47421168 84.68813281 177.51740164 77.28634149 C177.57606177 67.28203467 177.64232015 57.27777837 177.70815182 47.27351665 C177.81164366 31.51571182 177.90498787 15.75786353 178 0 C198.79 0 219.58 0 241 0 C241.1209091 35.17559264 241.1209091 35.17559264 241.14648438 50.00195312 C241.16423268 60.20846112 241.18501053 70.4148944 241.22631836 80.62133789 C241.25639825 88.05715356 241.2756167 95.49290817 241.28226548 102.928783 C241.28614657 106.85912301 241.2951446 110.78928849 241.31719017 114.71957207 C241.49720706 148.12602767 237.98072706 176.35498611 213.8125 201.625 C200.36412468 214.6070655 184.13748328 223.84876526 166.5 229.875 C165.31071899 230.28625122 165.31071899 230.28625122 164.09741211 230.70581055 C150.15102173 235.19839215 136.18271685 236.53293579 121.625 236.375 C120.86374817 236.37067963 120.10249634 236.36635925 119.31817627 236.36190796 C107.67682503 236.28464842 96.34730267 235.77136046 85 233 C84.29359375 232.83371094 83.5871875 232.66742188 82.859375 232.49609375 C55.48936554 225.85049793 30.20026957 209.81327701 14.9375 185.8125 C6.40138301 171.46455868 -0.13494874 155.73084815 -0.12025452 138.77371216 C-0.12162918 137.54541183 -0.12300385 136.31711151 -0.12442017 135.05158997 C-0.12088177 133.70382666 -0.11724697 132.3560636 -0.11352539 131.00830078 C-0.1132431 129.57886253 -0.11340207 128.14942413 -0.1139679 126.71998596 C-0.11425423 122.85061718 -0.10838392 118.98127953 -0.10139394 115.11191797 C-0.09513319 111.064024 -0.09455445 107.01612927 -0.09336853 102.9682312 C-0.09026324 95.30795042 -0.08206066 87.64768396 -0.07201904 79.98740947 C-0.05874047 69.63255137 -0.05335152 59.27768933 -0.04751682 48.92282486 C-0.03812023 32.61520586 -0.01819595 16.30761705 0 0 Z " fill="#FE4D30" transform="translate(269,4)"/>
<path d="M0 0 C34.92481821 -0.1209091 34.92481821 -0.1209091 49.64648438 -0.14648438 C59.78056432 -0.16423206 69.91456902 -0.18500816 80.04858398 -0.22631836 C87.43166194 -0.25640009 94.8146784 -0.27561713 102.19781595 -0.28226548 C106.10021085 -0.28614626 110.00242994 -0.29514227 113.90476799 -0.31719017 C146.79904772 -0.4955524 175.74183013 3.12066339 200.140625 27.10546875 C201.09602057 28.06806422 202.04934011 29.03272729 203 30 C203.73734375 30.73863281 204.4746875 31.47726563 205.234375 32.23828125 C230.13659791 58.68444198 236.14720722 93.64524792 235.14794922 128.74853516 C233.96634254 154.71658424 225.66379294 181.48604693 208 201 C206.99066406 202.22009766 206.99066406 202.22009766 205.9609375 203.46484375 C190.60346651 221.58665952 168.45153665 232.89467167 145 236 C140.14466321 236.26434084 135.30218988 236.2536076 130.44067383 236.22705078 C129.01049813 236.22648535 127.58032185 236.2268058 126.15014648 236.22793579 C122.30169502 236.22850516 118.45337048 236.21681893 114.60494828 236.20278788 C110.57043507 236.1902105 106.53591834 236.18910453 102.50138855 236.18673706 C94.87666933 236.18054275 87.25200807 236.16415992 79.62731427 236.14403808 C69.3133037 236.117415 58.99927706 236.10668986 48.68524075 236.09503365 C32.45678383 236.07627766 16.22844916 236.03641841 0 236 C0 214.88 0 193.76 0 172 C14.82486328 171.96132813 14.82486328 171.96132813 29.94921875 171.921875 C36.22462898 171.89669737 42.50000884 171.87051912 48.77539062 171.83984375 C58.72761803 171.79138018 68.67974448 171.7469066 78.63208008 171.72900391 C85.88191728 171.71594373 93.13154796 171.68886864 100.3812688 171.64538693 C104.2153318 171.62286956 108.04914101 171.60708342 111.88327599 171.60811615 C115.50235174 171.60886858 119.12086859 171.59068781 122.7397995 171.55883217 C124.6802991 171.54643572 126.62089307 171.55335152 128.56141663 171.56114197 C140.08581632 171.42611446 151.53508254 169.35279935 160 161 C171.09170374 149.30371702 174.35753101 134.88476713 174.3125 119.25 C174.32861328 118.1465625 174.34472656 117.043125 174.36132812 115.90625 C174.37035645 100.52197807 169.89650094 86.20116702 159.12890625 74.90234375 C149.15314382 65.98822209 137.07506027 64.5528942 124.19677734 64.56762695 C122.83570476 64.55859165 121.47464027 64.54826015 120.11358643 64.53674316 C116.4489842 64.50935418 112.78453711 64.49991354 109.11984587 64.49388909 C105.27877977 64.48445785 101.43782743 64.45825093 97.59683228 64.43388367 C90.33691476 64.39034489 83.07701949 64.36172066 75.81701148 64.33856028 C65.99699743 64.30636157 56.1771158 64.25090948 46.35720253 64.19681454 C30.90484126 64.11230056 15.45253108 64.05867025 0 64 C0 42.88 0 21.76 0 0 Z " fill="#FE4D30" transform="translate(6,4)"/>
<path d="M0 0 C18.48 0 36.96 0 56 0 C56 37.29 56 74.58 56 113 C37.52 113 19.04 113 0 113 C0 75.71 0 38.42 0 0 Z " fill="#FE4E30" transform="translate(361,4)"/>
<path d="M0 0 C6.6 0 13.2 0 20 0 C24.5 10.125 24.5 10.125 26.25 15.5625 C26.58515625 16.59503906 26.9203125 17.62757813 27.265625 18.69140625 C27.50796875 19.45324219 27.7503125 20.21507812 28 21 C29.40369382 18.33872175 30.45718989 15.78028776 31.2890625 12.890625 C31.58611084 11.8701709 31.58611084 11.8701709 31.88916016 10.82910156 C32.1319873 9.97799805 32.37481445 9.12689453 32.625 8.25 C33.40875 5.5275 34.1925 2.805 35 0 C42.26 0 49.52 0 57 0 C57 15.51 57 31.02 57 47 C51.72 47 46.44 47 41 47 C41 40.07 41 33.14 41 26 C37.535 36.395 37.535 36.395 34 47 C30.04 47 26.08 47 22 47 C18.535 37.1 18.535 37.1 15 27 C15 33.6 15 40.2 15 47 C10.05 47 5.1 47 0 47 C0 31.49 0 15.98 0 0 Z " fill="#FE4E30" transform="translate(105,295)"/>
<path d="M0 0 C5.61 0 11.22 0 17 0 C17.41572266 2.03994141 17.41572266 2.03994141 17.83984375 4.12109375 C18.20553093 5.89327008 18.57142713 7.6654033 18.9375 9.4375 C19.11990234 10.33533203 19.30230469 11.23316406 19.49023438 12.15820312 C19.66748047 13.01220703 19.84472656 13.86621094 20.02734375 14.74609375 C20.27085571 15.93223267 20.27085571 15.93223267 20.51928711 17.14233398 C20.83290893 19.00204668 20.83290893 19.00204668 22 20 C22.11593506 19.42967041 22.23187012 18.85934082 22.35131836 18.27172852 C22.87613125 15.70116824 23.40673615 13.13183782 23.9375 10.5625 C24.11990234 9.66466797 24.30230469 8.76683594 24.49023438 7.84179688 C24.66748047 6.98779297 24.84472656 6.13378906 25.02734375 5.25390625 C25.18968506 4.46314697 25.35202637 3.6723877 25.51928711 2.85766602 C26 1 26 1 27 0 C29.69654854 -0.07319621 32.36691458 -0.09242537 35.0625 -0.0625 C35.82111328 -0.05798828 36.57972656 -0.05347656 37.36132812 -0.04882812 C39.24091871 -0.0370068 41.12046899 -0.01907078 43 0 C44.5841787 4.58127355 45.89911855 9.18940867 47.125 13.875 C47.30675781 14.56335938 47.48851562 15.25171875 47.67578125 15.9609375 C48.11891226 17.6401708 48.55970044 19.32002206 49 21 C49.17390259 20.09906616 49.17390259 20.09906616 49.35131836 19.17993164 C49.87606471 16.47333141 50.40670147 13.76791952 50.9375 11.0625 C51.11990234 10.11697266 51.30230469 9.17144531 51.49023438 8.19726562 C51.66748047 7.29814453 51.84472656 6.39902344 52.02734375 5.47265625 C52.18968506 4.64000244 52.35202637 3.80734863 52.51928711 2.94946289 C53 1 53 1 54 0 C56.69654854 -0.07319621 59.36691458 -0.09242537 62.0625 -0.0625 C62.82111328 -0.05798828 63.57972656 -0.05347656 64.36132812 -0.04882812 C66.24091871 -0.0370068 68.12046899 -0.01907078 70 0 C68.42453474 8.84961344 66.05220538 17.43306101 63.6315918 26.08032227 C62.93075607 28.58661732 62.23750907 31.09493015 61.54492188 33.60351562 C61.10200908 35.19543682 60.65866577 36.78723831 60.21484375 38.37890625 C60.00754135 39.12983047 59.80023895 39.8807547 59.58665466 40.6544342 C58.11508273 45.88491727 58.11508273 45.88491727 57 47 C54.30345146 47.07319621 51.63308542 47.09242537 48.9375 47.0625 C47.79958008 47.05573242 47.79958008 47.05573242 46.63867188 47.04882812 C44.75908129 47.0370068 42.87953101 47.01907078 41 47 C40.15854044 43.91882573 39.32826938 40.83474379 38.5 37.75 C38.26152344 36.87730469 38.02304688 36.00460937 37.77734375 35.10546875 C37.55175781 34.26113281 37.32617188 33.41679687 37.09375 32.546875 C36.88427734 31.77182617 36.67480469 30.99677734 36.45898438 30.19824219 C36 28 36 28 36 24 C35.34 24 34.68 24 34 24 C33.9175 25.010625 33.835 26.02125 33.75 27.0625 C32.92729616 33.85287645 30.81925054 40.42722386 29 47 C23.39 47 17.78 47 12 47 C10.28615816 40.78998221 8.57728926 34.57862589 6.87304688 28.3659668 C6.29238731 26.25198278 5.71036231 24.13837332 5.12695312 22.02514648 C4.28938655 18.99039209 3.45671395 15.95433159 2.625 12.91796875 C2.36251465 11.97100632 2.1000293 11.02404388 1.82958984 10.04838562 C1.46921631 8.72735588 1.46921631 8.72735588 1.1015625 7.37963867 C0.88838379 6.60464523 0.67520508 5.82965179 0.45556641 5.03117371 C0 3 0 3 0 0 Z " fill="#FE4D30" transform="translate(210,295)"/>
<path d="M0 0 C32.06284153 0 32.06284153 0 40 7 C45.66979962 14.26897387 45.69603693 21.0410104 45 30 C43.32681487 36.42059595 39.36898688 40.3354534 34 44 C23 47 23 47 0 47 C0 31.49 0 15.98 0 0 Z M16 14 C16 20.27 16 26.54 16 33 C23.1699821 32.70117135 23.1699821 32.70117135 28 29 C29.05657725 24.63281403 29.50815925 22.29862921 27.875 18.125 C25.67117616 15.62733298 24.20952069 14.84058875 21 14 C19.35 14 17.7 14 16 14 Z " fill="#FE4D30" transform="translate(463,295)"/>
<path d="M0 0 C32.51569507 0 32.51569507 0 41 8 C45.64658911 13.41472443 45.60653801 19.78323955 45.37890625 26.65625 C44.66980661 32.91387159 42.37837754 36.92499839 37.9375 41.3125 C26.19978165 49.32395856 13.92508043 47 0 47 C0 31.49 0 15.98 0 0 Z M16 14 C16 20.27 16 26.54 16 33 C22.1683564 33 23.41855919 32.62253459 28 29 C29.74663084 25.50673832 28.85825223 21.71228148 28 18 C24.76019127 13.85304482 21.60805098 14.70100637 16 14 Z " fill="#FE4D30" transform="translate(4,295)"/>
<path d="M0 0 C28.65384615 0 28.65384615 0 35 5 C37.56632517 8.42176689 37.36435051 11.84640421 37 16 C35.5625 18.8125 35.5625 18.8125 34 21 C33.67 21.66 33.34 22.32 33 23 C33.804375 23.78375 34.60875 24.5675 35.4375 25.375 C38.99031899 29.01447311 38.99031899 29.01447311 39.01953125 31.98828125 C38.56458003 37.09575252 38.08886997 40.52446053 34 44 C26.8707333 47.48473554 19.70985885 47.36103814 11.9375 47.1875 C7.998125 47.125625 4.05875 47.06375 0 47 C0 31.49 0 15.98 0 0 Z M15 13 C15 14.65 15 16.3 15 18 C17.41619823 18.25030977 17.41619823 18.25030977 20 18 C20.66 17.01 21.32 16.02 22 15 C20.16116119 12.71271266 20.16116119 12.71271266 17.375 12.875 C16.199375 12.936875 16.199375 12.936875 15 13 Z M15 29 C15 30.65 15 32.3 15 34 C16.98 34 18.96 34 21 34 C21.59070014 32.05396726 21.59070014 32.05396726 22 30 C20.87465895 28.64381501 20.87465895 28.64381501 17.9375 28.9375 C16.968125 28.958125 15.99875 28.97875 15 29 Z " fill="#FE4D30" transform="translate(170,295)"/>
<path d="M0 0 C5.28 0 10.56 0 16 0 C16.04898438 1.97484375 16.09796875 3.9496875 16.1484375 5.984375 C16.22346811 8.57293092 16.29901581 11.16147189 16.375 13.75 C16.4059375 15.05195313 16.436875 16.35390625 16.46875 17.6953125 C16.50742188 18.94570313 16.54609375 20.19609375 16.5859375 21.484375 C16.63306885 23.21252441 16.63306885 23.21252441 16.68115234 24.97558594 C16.98401175 27.84834422 17.5088238 29.56179611 19 32 C20.98 32 22.96 32 25 32 C27.14698307 28.48949434 27.30296135 25.5580839 27.4140625 21.484375 C27.45273438 20.23398437 27.49140625 18.98359375 27.53125 17.6953125 C27.5621875 16.39335937 27.593125 15.09140625 27.625 13.75 C27.66367188 12.43257813 27.70234375 11.11515625 27.7421875 9.7578125 C27.83646182 6.50534839 27.9220675 3.25289004 28 0 C30.47923801 -0.02685095 32.9581884 -0.04676547 35.4375 -0.0625 C36.14455078 -0.07087891 36.85160156 -0.07925781 37.58007812 -0.08789062 C39.38693559 -0.09653588 41.19387603 -0.05220011 43 0 C45.63463437 2.63463437 44.22999007 10.09747766 44.24023438 13.88061523 C44.24985248 16.02954119 44.28081779 18.1774743 44.3125 20.32617188 C44.43420546 35.69269146 44.43420546 35.69269146 39.38671875 42.0234375 C31.98378404 47.91174879 25.35968152 48.77586834 16 48 C10.13969789 46.83770675 5.40528194 43.97778474 2 39 C0.11098397 34.34288226 -0.26948088 30.15923955 -0.1953125 25.1953125 C-0.1924826 24.4713327 -0.18965271 23.74735291 -0.18673706 23.00143433 C-0.17562087 20.7091151 -0.15053312 18.41719937 -0.125 16.125 C-0.1149591 14.56250568 -0.10583519 13.00000518 -0.09765625 11.4375 C-0.07741858 7.62472282 -0.0382556 3.81280835 0 0 Z " fill="#FE4D30" transform="translate(54,295)"/>
<path d="M0 0 C5.61 0 11.22 0 17 0 C19.7934883 5.42604905 22.24827418 10.86274353 24.453125 16.55078125 C24.75820984 17.33140427 25.06329468 18.11202728 25.37762451 18.91630554 C26.01474922 20.5499783 26.6499221 22.18441351 27.28320312 23.81958008 C28.25512142 26.32570575 29.23658467 28.82795325 30.21875 31.33007812 C30.83911825 32.92425491 31.45893008 34.51864836 32.078125 36.11328125 C32.51865204 37.23359489 32.51865204 37.23359489 32.96807861 38.37654114 C34.12863724 41.39187352 35 43.73960129 35 47 C29.39 47 23.78 47 18 47 C16 43 16 43 16 40 C11.05 40 6.1 40 1 40 C0.67 41.98 0.34 43.96 0 46 C-1 47 -1 47 -4.81640625 47.09765625 C-6.39846682 47.09098089 -7.98051159 47.07901875 -9.5625 47.0625 C-10.36880859 47.05798828 -11.17511719 47.05347656 -12.00585938 47.04882812 C-14.00393756 47.03700518 -16.00197783 47.01906914 -18 47 C-12.18468494 31.26294126 -6.07113705 15.63956341 0 0 Z M8 19 C7.34 21.97 6.68 24.94 6 28 C7.98 28 9.96 28 12 28 C11.01 25.03 10.02 22.06 9 19 C8.67 19 8.34 19 8 19 Z " fill="#FE4E30" transform="translate(295,295)"/>
<path d="M0 0 C1.3828125 1.375 1.3828125 1.375 3.3203125 3.6875 C0.3503125 6.6575 -2.6196875 9.6275 -5.6796875 12.6875 C-7.3296875 12.0275 -8.9796875 11.3675 -10.6796875 10.6875 C-13.00566261 10.3061926 -15.33880908 9.96289746 -17.6796875 9.6875 C-16.13393039 12.77901422 -13.63018317 12.89848411 -10.4296875 14 C-5.30971818 15.90314649 -1.92569254 17.28220745 1.3203125 21.6875 C2.87448869 26.35002858 2.86480052 30.17503327 1.1953125 34.8125 C-2.06697889 39.81468013 -6.06343139 42.79869958 -11.6796875 44.6875 C-19.39413571 45.7208996 -26.8334126 44.43444775 -33.6796875 40.6875 C-34.6696875 39.3675 -35.6596875 38.0475 -36.6796875 36.6875 C-32.2246875 31.7375 -32.2246875 31.7375 -27.6796875 26.6875 C-25.46614583 27.72916667 -23.25260417 28.77083333 -21.0390625 29.8125 C-18.4740218 30.91931252 -18.4740218 30.91931252 -14.6796875 30.6875 C-17.03832881 27.95887574 -19.16963293 26.97514792 -22.5546875 25.8125 C-27.67272133 23.86988862 -31.15721864 21.73243771 -33.6796875 16.6875 C-34.22004344 11.7622885 -34.22404219 7.81808282 -32.0546875 3.3125 C-24.03346418 -5.55306261 -9.83897975 -7.68813302 0 0 Z " fill="#FE4D30" transform="translate(408.6796875,298.3125)"/>
<path d="M0 0 C17.15807376 -1.52893727 17.15807376 -1.52893727 21.59765625 2.15625 C23.47158468 5.36080575 25 8.23331021 25 12 C25.66 12 26.32 12 27 12 C27.2475 11.319375 27.495 10.63875 27.75 9.9375 C29.21690363 6.49027648 31.1412887 3.25274477 33 0 C38.94 0 44.88 0 51 0 C49.98458735 4.06165058 48.92500781 5.71145319 46.4375 8.97265625 C37.10451676 21.68874072 31.33783715 30.98279438 33 47 C27.72 47 22.44 47 17 47 C17.1134375 45.84628906 17.226875 44.69257813 17.34375 43.50390625 C18.12221273 27.33273023 10.60639539 16.74471592 1.45288086 4.20458984 C0 2 0 2 0 0 Z " fill="#FE4D30" transform="translate(323,295)"/>
<path d="M0 0 C5.28 0 10.56 0 16 0 C16 15.51 16 31.02 16 47 C10.72 47 5.44 47 0 47 C0 31.49 0 15.98 0 0 Z " fill="#FE4E30" transform="translate(439,295)"/>
<path d="M0 0 C2.90398503 2.11912421 3.84245093 3.50634623 4.9375 6.9375 C5.01327396 10.65042412 4.3135507 12.12800603 2 15 C-0.6740203 17.10101595 -2.04284685 16.99846976 -5.5 16.875 C-9.37659512 15.90585122 -10.81160682 15.32635764 -13 12 C-13.61447856 7.77545993 -13.47763281 5.75762445 -11.1875 2.125 C-7.50859763 -1.44879087 -4.76887416 -1.26521151 0 0 Z " fill="#FE4D30" transform="translate(428,326)"/>
</svg>
